<svg width="162" height="57" viewBox="0 0 162 57" fill="none" xmlns="http://www.w3.org/2000/svg">
<path d="M48.204 46.8258H46.1001V40.6968H49.751V41.3097H46.8426V43.271H48.204C49.4416 43.271 50.246 43.7613 50.246 44.9871V45.0484C50.246 46.2129 49.4416 46.8258 48.204 46.8258ZM48.204 46.2742C49.1322 46.2742 49.5035 45.8452 49.5035 45.1097V45.0484C49.5035 44.3129 49.0703 43.8839 48.1421 43.8839H46.8426V46.2742H48.204Z" fill="black"/>
<path d="M50.9268 45.6C50.9268 44.558 52.0406 44.1903 53.2163 44.1903H53.897V43.8838C53.897 43.1484 53.6494 42.8419 52.9069 42.8419C52.2881 42.8419 51.9168 43.0871 51.8549 43.6387H51.1124C51.2362 42.5967 52.0406 42.229 52.9069 42.229C53.7732 42.229 54.5776 42.5967 54.5776 43.8226V46.7645H53.8351V46.2129C53.5257 46.6419 53.0925 46.8871 52.4119 46.8871C51.6074 46.8871 50.9268 46.5193 50.9268 45.6ZM53.897 45.2935V44.7419H53.2782C52.35 44.7419 51.7312 44.9871 51.7312 45.6C51.7312 46.0903 51.9787 46.3355 52.5975 46.3355C53.2782 46.3355 53.897 45.9677 53.897 45.2935Z" fill="black"/>
<path d="M58.7236 44.8645H56.496V46.8871H55.7534V42.4129H56.496V44.3129H58.7236V42.4129H59.4662V46.8871H58.7236V44.8645Z" fill="black"/>
<path d="M61.4462 44.5581V46.8258H60.7036V42.3516H61.4462V44.4355L63.3025 42.3516H64.1688L62.2506 44.4355L64.3545 46.8258H63.4882L61.4462 44.5581Z" fill="black"/>
<path d="M25.2467 11.3387C17.8211 11.3387 11.8188 17.2838 11.8188 24.6387C11.8188 31.9935 17.8211 37.9387 25.2467 37.9387C32.6722 37.9387 38.6745 31.9935 38.6745 24.6387C38.6126 17.2838 32.6103 11.3387 25.2467 11.3387ZM23.3284 30.2774L22.3383 33.158C18.6256 31.9322 16.1504 28.4387 16.1504 24.5161C16.1504 20.5935 18.6256 17.1613 22.4002 15.8742L23.3903 18.7548C20.9151 19.5516 19.3062 21.8806 19.3062 24.4548C19.2444 27.2129 20.8532 29.4806 23.3284 30.2774ZM27.9075 33.2806L26.9793 30.3387C29.5163 29.5419 31.1871 27.2129 31.1871 24.5774C31.1871 21.9419 29.5163 19.6742 27.0412 18.8774L28.0312 15.9355C31.8059 17.1613 34.3429 20.6548 34.3429 24.5774C34.3429 28.5613 31.744 32.0548 27.9075 33.2806Z" fill="#00BEF0"/>
<path d="M148.139 27.0289L149.624 28.8064C148.077 30.3999 146.159 30.8289 144.612 30.8289C143.127 30.8289 142.075 30.5838 141.147 30.1547C139.167 29.1741 138.177 27.2128 138.177 24.8225C138.177 21.2064 140.652 18.5096 144.303 18.5096C148.387 18.5096 150.367 21.5128 150.058 25.4354H140.776C140.838 26.416 141.394 27.3354 142.199 27.8257C142.88 28.2547 143.684 28.4386 144.736 28.4386C145.912 28.4386 147.087 28.0709 148.139 27.0289ZM140.899 23.2902H147.459C147.273 21.8806 146.097 20.6547 144.241 20.6547C142.261 20.716 141.085 22.0031 140.899 23.2902ZM78.5251 30.5225H81.8666L76.6068 24.4547L81.8047 18.7547H78.5251L74.5648 23.2902H73.3891V18.7547H70.8521V30.4612H73.3891V25.8031H74.5648L78.5251 30.5225ZM89.4777 20.8999C87.312 20.8999 85.8887 22.5547 85.8887 24.6386C85.8887 26.7225 87.312 28.3773 89.4777 28.3773C91.6435 28.3773 93.0048 26.7838 93.0048 24.6386C93.0048 22.5547 91.7054 20.8999 89.4777 20.8999ZM89.9109 18.5096C93.2524 18.5096 95.7275 21.0838 95.7275 24.6386C95.7275 28.1322 93.3142 30.8289 89.9109 30.8289C88.302 30.8289 87.0026 30.2773 86.0744 29.2967V35.4257H83.4754V18.7547H86.0125V20.1644C87.0026 18.9999 88.2401 18.5096 89.9109 18.5096ZM123.573 18.7547H112.992V21.0838H117.014V30.4612H119.613V21.1451H123.635V18.7547H123.573ZM69.0576 18.7547H58.4762V21.0838H62.4983V30.4612H65.0973V21.1451H69.1194V18.7547H69.0576ZM55.3203 24.6386C55.3203 22.4322 53.7734 20.8386 51.6076 20.8386C49.5037 20.8386 47.8948 22.4322 47.8948 24.6386C47.8948 26.8451 49.4418 28.4386 51.6076 28.4386C53.7115 28.4386 55.3203 26.8451 55.3203 24.6386ZM45.2959 24.6386C45.2959 21.1451 48.0186 18.5096 51.6695 18.5096C55.2585 18.5096 58.043 21.1451 58.043 24.6386C58.043 28.1322 55.3203 30.8289 51.6695 30.8289C48.0186 30.8289 45.2959 28.1322 45.2959 24.6386ZM136.135 18.7547V30.4612H133.598V22.9225L127.41 30.4612H125.368V18.7547H127.905V26.3547L134.093 18.816H136.135V18.7547ZM111.259 30.5225H108.722V18.7547H111.259V30.5225ZM104.638 26.4773C104.638 25.4354 103.896 24.6999 102.906 24.6999H100.307V28.316H102.906C103.896 28.316 104.638 27.5806 104.638 26.4773ZM107.237 26.4773C107.237 28.8064 105.504 30.4612 103.029 30.4612H97.7696V18.7547H100.307V22.5547H103.215C105.69 22.5547 107.237 24.1483 107.237 26.4773Z" fill="black"/>
</svg>
