<svg width="141" height="104" viewBox="0 0 141 104" fill="none" xmlns="http://www.w3.org/2000/svg">
<g clip-path="url(#clip0_2_512)" filter="url(#filter0_d_2_512)">
<path d="M107.67 31.8392L108.666 28.672L105.372 28.7746C105.094 28.7746 103.072 28.7176 101.109 27.3034C101.255 27.3176 101.402 27.3377 101.551 27.3377C103.571 27.3377 105.525 26.1288 106.308 24.4011L107.725 21.2792C105.949 21.3021 104.325 21.0798 104.325 21.0798C104.311 21.0769 103.031 20.9144 101.551 19.412C100.489 18.3343 99.1755 17.7641 97.7525 17.7641C97.1299 17.7641 96.5734 17.8753 96.0942 18.0265C96.1688 17.7727 96.2405 17.516 96.2807 17.2509C96.734 14.3288 94.8406 12.0993 94.8406 12.1023L92.3646 9.05451L90.8298 12.6354C90.8241 12.6468 90.4366 13.4849 89.7424 13.8955C89.5331 12.8435 89.0195 11.6603 87.9207 10.5285C85.8492 8.39593 83.3274 8.07961 82.0078 8.07961C81.3966 8.07961 80.9605 8.14513 80.8544 8.16229L77.8648 8.74669C78.0371 8.08241 78.4043 6.92781 79.0755 5.88712L80.7253 3.33272L76.5738 3.80308L75.2512 1.01211L72.6921 2.32354L70.3253 0L67.9642 2.32354L65.3964 1.01211L64.0767 3.80308L59.9282 3.33272L61.5808 5.88712C62.2521 6.92781 62.6193 8.07961 62.7886 8.74376L59.937 8.185L59.8393 8.16786C59.6958 8.14513 59.2627 8.07961 58.6486 8.07961C57.329 8.07961 54.8072 8.39887 52.7415 10.5285C51.6397 11.6574 51.1263 12.8435 50.9139 13.8955C50.2254 13.4907 49.841 12.6638 49.841 12.6638L48.3032 9.06315L45.7871 12.1307C45.4802 12.5271 43.9626 14.6224 44.3755 17.2567C44.4187 17.519 44.4876 17.7755 44.5621 18.0292C44.0859 17.8782 43.5291 17.7671 42.9067 17.7671C41.4838 17.7671 40.1697 18.3373 39.1054 19.4149C37.6307 20.9116 36.357 21.0798 36.3684 21.0798C36.3684 21.0798 35.0227 21.3193 32.9399 21.2822L34.3487 24.404C35.1318 26.1346 37.0885 27.3404 39.1054 27.3404C39.2574 27.3404 39.4037 27.3205 39.5529 27.3062C37.5962 28.7202 35.5737 28.7773 35.3299 28.7802L31.9731 28.672L32.9888 31.8364C33.4994 33.4672 35.2064 36.1698 38.477 36.4607C38.1212 37.943 37.3323 39.6023 35.5995 40.3179L33.1007 41.3414L34.4634 43.6992C35.2322 44.9708 37.0369 46.4589 39.6074 46.4589C40.1639 46.456 40.7004 46.4019 41.217 46.2936C41.3488 46.8751 41.5153 47.4566 41.7104 48.0326C42.4764 50.2961 41.8164 51.8757 41.8079 51.8928L40.5742 54.4614L43.3284 55.1828C43.3628 55.1942 44.1948 55.4192 45.2363 55.4192C45.7098 55.4192 46.1601 55.371 46.5848 55.2711C46.9061 55.1969 47.213 55.0971 47.5085 54.9775C47.8643 55.6132 48.2975 56.1919 48.8025 56.7107C50.5668 58.5097 53.0656 59.422 56.233 59.422H56.2445L58.5053 59.3936L53.8346 61.3208L57.3805 63.0229C58.6688 63.6471 60.198 64.3855 61.7528 64.9501L61.311 66.1532L62.5332 66.7062C62.6423 66.7547 64.9919 67.801 68.8995 68.0233C68.8995 68.0233 69.8433 68.0661 70.3626 68.0661C70.8819 68.0661 71.8143 68.0205 71.8143 68.0205C75.6959 67.7925 78.0284 66.7574 78.1376 66.7062L79.3624 66.1502L78.9149 64.9443C80.5158 64.3626 82.0995 63.5958 83.3331 62.9972L86.8131 61.318L82.1569 59.3879L84.4263 59.4164C87.5964 59.4164 90.0982 58.5039 91.8596 56.7023C92.3618 56.1863 92.7949 55.6076 93.1537 54.9719C93.4491 55.0916 93.7589 55.1912 94.0802 55.2654C94.5019 55.3652 94.9524 55.4136 95.4258 55.4136C96.45 55.4136 97.2906 55.1884 97.3136 55.1828L100.079 54.4557L98.8741 51.9354C98.8456 51.8699 98.1858 50.2934 98.9518 48.0268C99.1469 47.4481 99.3102 46.8665 99.4424 46.2878C99.9616 46.3962 100.504 46.4531 101.063 46.4531C104.337 46.4531 105.906 44.1638 106.21 43.6677L107.559 41.3358L105.06 40.3152C103.324 39.5996 102.538 37.9374 102.185 36.4578C105.41 36.1841 107.143 33.4814 107.67 31.8392ZM63.0067 9.83576L62.9722 9.84426L63.0008 9.80718L63.0067 9.83576Z" fill="white"/>
<path d="M70.3288 9.69586C67.6836 9.69878 65.7012 10.5598 65.2681 11.5719L70.3288 13.5561L75.3897 11.5719C74.9594 10.5598 72.9769 9.69878 70.3288 9.69586Z" fill="white"/>
<path d="M70.3802 62.2243H70.3744H70.3314H70.2827H70.2799C68.6761 62.2357 66.4698 61.9077 65.4055 61.6L64.126 65.041C64.9694 65.3403 67.8269 65.9105 70.3314 65.9105C72.8302 65.9105 75.6907 65.3375 76.5313 65.041L75.2546 61.6C74.1872 61.9107 71.9839 62.2357 70.3802 62.2243Z" fill="white"/>
<path d="M80.0635 58.8037C79.1108 59.3396 76.9851 60.1436 75.7485 60.5172L76.787 63.3595C78.7007 62.8407 80.2786 62.2333 81.5839 61.5833L79.4293 60.8707L80.0635 58.8037Z" fill="white"/>
<path d="M60.5976 58.8037L61.2346 60.8707L59.0771 61.5833C60.3796 62.2333 61.9662 62.8407 63.8711 63.3595L64.9097 60.5172C63.6789 60.1436 61.5501 59.3369 60.5976 58.8037Z" fill="white"/>
<path d="M70.3293 6.40638C72.3231 6.40638 74.2798 6.87953 75.783 7.71209C75.9208 7.25301 76.113 6.69705 76.3741 6.11557L75.8061 6.18387L75.2093 6.24661L74.9567 5.70779L74.1966 4.11127L72.8109 4.8298L72.2716 5.10346L71.8411 4.68145L70.3349 3.19897L68.8317 4.68145L68.4012 5.10346L67.8619 4.8298L66.4677 4.11127L65.716 5.70779L65.4577 6.24661L64.8609 6.18387L64.293 6.11557C64.554 6.69997 64.7435 7.25301 64.8839 7.71209C66.3901 6.87953 68.3411 6.40638 70.3293 6.40638Z" fill="white"/>
<path d="M100.771 24.8577C101.029 24.9461 101.293 24.9859 101.554 24.9859C102.681 24.9859 103.772 24.2618 104.148 23.4322C104.148 23.4322 102.079 23.3067 99.8556 21.0631C99.1469 20.3361 98.3981 20.1194 97.7555 20.1194C96.7571 20.1194 96.0083 20.644 96.0083 20.644C98.6936 22.0638 99.2415 24.3445 100.771 24.8577Z" fill="white"/>
<path d="M39.1029 24.9859C39.364 24.9859 39.628 24.9461 39.8804 24.8577C41.4154 24.3445 41.9661 22.0638 44.6515 20.644C44.6515 20.644 43.8998 20.1194 42.9071 20.1194C42.2618 20.1194 41.5128 20.3361 40.8013 21.0631C38.5807 23.3067 36.5122 23.4322 36.5122 23.4322C36.8824 24.2618 37.9754 24.9859 39.1029 24.9859Z" fill="white"/>
<path d="M101.5 34.1257C101.546 34.1286 101.586 34.1286 101.635 34.1286C104.45 34.1286 105.405 31.1322 105.405 31.1322H105.35C104.834 31.1322 100.648 31.0125 97.6903 27.2749C95.7423 24.8174 94.1472 22.6564 90.9941 21.8068L90.6842 21.7526L90.6155 21.4391C90.5294 20.9601 90.8593 20.5125 91.6082 20.0279C95.9575 17.1969 93.0053 13.5875 93.0053 13.5875C93.0053 13.5875 91.7631 16.4756 88.9829 16.4756C88.917 16.4756 88.8454 16.4728 88.7765 16.4728C88.4609 16.4557 88.1568 16.4442 87.8498 16.3787L87.3362 16.2788C87.3362 16.2788 88.1281 14.1378 86.2174 12.1707C84.7771 10.6853 83.0241 10.4344 82.0115 10.4344C81.5009 10.4344 81.1766 10.5 81.1766 10.5C82.1377 11.7487 82.832 13.8186 81.7217 15.0957C80.7635 16.1934 78.4224 16.2474 78.4224 17.884C78.4224 18.5767 79.0736 19.3864 80.2442 20.1134C83.7645 22.317 87.2587 25.2394 88.7105 29.1565C90.5265 34.0432 88.4809 37.2846 85.5604 39.1434C85.5604 39.1434 86.4756 39.9815 87.804 40.0871C88.0736 40.1128 88.3375 40.1242 88.5842 40.1242C91.3873 40.1242 92.8361 38.8184 92.8361 38.8184C92.8361 38.8184 92.5979 40.623 91.1377 42.2993C89.7921 43.8474 88.0248 44.7569 85.3308 44.7967C85.3308 44.7967 85.2449 46.0399 86.4382 47.1145C87.2016 47.793 88.9658 48.0155 88.9658 48.0155C88.9658 48.0155 85.6636 48.6796 85.2993 53.5264C85.1013 56.1521 84.427 57.0644 84.427 57.0644H84.4873C92.1504 57.0644 91.9523 50.5329 91.9523 50.5329C91.9523 50.5329 92.4861 52.4658 94.6235 52.9704C94.8816 53.0389 95.157 53.0646 95.421 53.0646C96.1095 53.0646 96.7063 52.9049 96.7063 52.9049C96.7063 52.9049 95.5873 50.5585 96.6977 47.277C97.6186 44.5545 97.4693 42.536 97.4693 42.536C97.4693 42.536 98.5023 44.0869 101.061 44.1013H101.087C103.219 44.1013 104.148 42.4961 104.148 42.4961C99.0388 40.3893 99.5438 33.587 99.5438 33.587C99.5438 33.587 100.206 34.0772 101.5 34.1257ZM99.9625 41.2302C97.8854 40.2126 96.5714 37.5097 96.2529 36.5348C95.9088 41.8945 93.2751 45.6151 90.1966 49.1958C88.5986 51.0517 88.042 52.8563 88.042 52.8563C88.042 52.8563 88.349 50.8122 89.7319 49.1472C92.6037 45.7176 95.3319 41.4498 95.5358 36.5149C95.6762 33.0709 94.784 30.277 93.3926 27.9762C94.17 30.3738 94.0612 33.3103 91.4188 36.0501C91.4188 36.0501 96.6776 29.7867 89.3246 23.3663C86.3809 20.9229 83.1619 19.4149 81.5038 18.3457C87.4941 20.2873 90.4176 18.1491 90.4176 18.1491C88.5039 19.797 86.028 19.7684 84.4932 19.5318C84.9091 19.7342 85.3423 19.9451 85.81 20.1932C90.8593 22.9186 95.3981 27.4032 96.1726 33.6154V33.567C97.3489 39.6651 99.9625 41.2302 99.9625 41.2302Z" fill="white"/>
<path d="M51.6921 48.0155C51.6921 48.0155 53.4565 47.7959 54.2197 47.1145C55.4102 46.0398 55.3271 44.7966 55.3271 44.7966C52.6302 44.7597 50.8659 43.8474 49.5116 42.3022C48.0629 40.6259 47.8219 38.8212 47.8219 38.8212C47.8219 38.8212 49.2706 40.1268 52.0707 40.1268C52.3233 40.1268 52.5843 40.1154 52.8541 40.0898C54.1823 39.9844 55.1004 39.1461 55.1004 39.1461C52.1798 37.2873 50.1314 34.0431 51.9445 29.1564C53.3992 25.2422 56.8906 22.317 60.4109 20.1134C61.5814 19.3863 62.2326 18.5795 62.2326 17.8839C62.2326 16.2474 59.8944 16.1933 58.9363 15.0957C57.8259 13.8185 58.523 11.7457 59.4812 10.5C59.4812 10.5 59.1629 10.4343 58.6493 10.4343C57.6396 10.4343 55.8864 10.6853 54.4463 12.1707C52.5298 14.1378 53.3245 16.2787 53.3245 16.2787L52.8109 16.3787C52.504 16.4442 52.1971 16.4556 51.8844 16.4727C51.8126 16.4727 51.7494 16.4755 51.6805 16.4755C48.8948 16.4755 47.6584 13.5904 47.6584 13.5904C47.6584 13.5904 44.7061 17.1998 49.0528 20.0306C49.8014 20.5153 50.1284 20.963 50.0424 21.4418L49.9735 21.7555L49.658 21.8096C46.5108 22.6592 44.9128 24.8203 42.9648 27.2778C40.0126 31.0096 35.8325 31.1322 35.3104 31.1322H35.2529C35.2529 31.1322 36.2083 34.1285 39.0228 34.1285C39.0686 34.1285 39.1087 34.1285 39.1576 34.1257C40.4516 34.0801 41.1173 33.587 41.1173 33.587C41.1173 33.587 41.6163 40.3863 36.5125 42.496C36.5125 42.496 37.442 44.1012 39.5736 44.1012H39.5993C42.1614 44.0868 43.1914 42.536 43.1914 42.536C43.1914 42.536 43.0422 44.5544 43.9601 47.277C45.0705 50.5585 43.9574 52.9048 43.9574 52.9048C43.9574 52.9048 44.5542 53.0645 45.2398 53.0645C45.5066 53.0645 45.7792 53.0388 46.0346 52.9703C48.169 52.4658 48.7055 50.5328 48.7055 50.5328C48.7055 50.5328 48.5104 57.0643 56.1734 57.0643H56.2279C56.2279 57.0643 55.5566 56.152 55.3615 53.5263C54.9942 48.6796 51.6921 48.0155 51.6921 48.0155ZM50.4613 49.1957C47.383 45.6151 44.7521 41.8945 44.405 36.5347C44.0865 37.507 42.7782 40.2125 40.7012 41.2301C40.7012 41.2301 43.3118 39.665 44.4853 33.5669V33.6153C45.2628 27.406 49.7986 22.9185 54.8509 20.1931C55.3127 19.9424 55.7516 19.7312 56.1648 19.5317C54.6298 19.7683 52.154 19.797 50.2405 18.149C50.2405 18.149 53.164 20.2873 59.1513 18.3457C57.493 19.4148 54.277 20.9229 51.3335 23.3662C43.9775 29.7866 49.2391 36.0501 49.2391 36.0501C46.5939 33.3076 46.4878 30.3738 47.2654 27.9762C45.871 30.2798 44.9815 33.0708 45.125 36.5148C45.3259 41.4498 48.0542 45.7175 50.9204 49.1471C52.3061 50.8094 52.6188 52.8563 52.6188 52.8563C52.6188 52.8563 52.0563 51.0516 50.4613 49.1957Z" fill="white"/>
<path d="M64.6628 24.1359C64.789 24.2701 64.9122 24.4155 65.03 24.5607C65.0588 24.595 65.0845 24.6264 65.1131 24.6663C65.2221 24.8117 65.3342 24.9656 65.4402 25.1225C65.4631 25.1538 65.4861 25.1909 65.512 25.2279C65.6411 25.4218 65.7616 25.6214 65.8821 25.8267C66.9867 27.7227 68.7568 28.8543 70.3261 28.8573C71.8984 28.8543 73.6626 27.7227 74.773 25.8267C74.8962 25.6157 75.0196 25.4105 75.1488 25.2193C75.1689 25.1909 75.189 25.1653 75.2061 25.1367C75.3151 24.9742 75.4299 24.8147 75.5505 24.6605C75.5763 24.6264 75.5993 24.5979 75.6222 24.5695C75.7456 24.4183 75.8718 24.2701 76.0008 24.1333C76.0238 24.1104 76.041 24.0905 76.0611 24.0734C76.6234 23.5004 77.2948 23.0641 78.1727 22.8217L77.7825 22.5965H77.7594L76.2047 21.6985L74.6067 20.7891L70.3375 23.0984L70.3261 23.0897L70.3175 23.0984L66.0456 20.7891L64.4505 21.6957L62.8926 22.5937H62.8755L62.4795 22.8189C63.3602 23.0613 64.0288 23.4917 64.5939 24.0648C64.6197 24.0877 64.637 24.1133 64.6628 24.1359ZM68.5991 23.9507H70.4064H72.2109V25.1825C71.7863 24.6663 70.9601 24.7718 70.9601 24.7718V26.5479C70.9601 26.5479 70.9917 27.4204 71.2986 27.7996H70.4064H69.5114C69.8239 27.4231 69.8527 26.5479 69.8527 26.5479V24.7718C69.8527 24.7718 69.0294 24.6663 68.5991 25.1825V23.9507Z" fill="white"/>
<path d="M69.958 21.5614V14.3513L65.3389 12.7947L66.5583 19.7823L69.958 21.5614ZM68.9653 16.1217V17.2792L68.7415 17.1766C68.7299 17.168 68.403 17.094 67.8292 16.6435C66.8823 15.9136 66.8653 15.2408 66.8653 15.2408L68.9653 16.1217Z" fill="white"/>
<path d="M74.1012 19.7823L75.3149 12.7947L70.6987 14.3513V21.5614L74.1012 19.7823ZM71.6913 16.1217L73.7913 15.2437C73.7913 15.2437 73.7743 15.9164 72.8246 16.6463C72.2537 17.0967 71.9237 17.1709 71.9123 17.1794L71.6885 17.282V16.1217H71.6913Z" fill="white"/>
<path d="M63.425 38.2768C63.8754 38.4395 64.4206 38.4736 64.6988 38.4736C64.7103 38.4395 64.7247 38.3967 64.7391 38.3453C64.7649 38.2627 64.7878 38.1828 64.805 38.0916C64.8824 37.6925 64.9112 37.2392 64.9168 36.9484C64.7275 36.8315 64.4607 36.6234 64.3114 36.3126C64.1394 35.9533 63.8955 35.788 63.5368 35.788C63.0722 35.788 62.573 36.0646 62.3607 36.1956C62.1914 37.1908 62.9286 38.0944 63.425 38.2768Z" fill="white"/>
<path d="M73.6434 34.4502C72.7855 35.3767 71.1072 36.9904 71.0239 37.0731L70.9235 37.1756L65.619 37.093C65.616 37.6148 65.5299 38.0595 65.4467 38.3845C65.4325 38.4387 65.4181 38.4957 65.4038 38.5528L71.7154 39.6789C72.3724 39.2228 74.1799 37.9113 74.8799 37.3982C74.3691 36.6569 74.3205 35.7788 74.4353 35.16C74.1024 34.9463 73.847 34.7069 73.6434 34.4502Z" fill="white"/>
<path d="M74.3619 28.1102C73.1398 29.316 71.9664 29.7608 70.9193 29.8634C70.7299 29.8834 70.5377 29.8948 70.3426 29.8948H70.3282H70.3166C70.1215 29.8948 69.9266 29.8834 69.7373 29.8634C69.5536 29.8464 69.3614 29.8178 69.1692 29.7751C69.1003 30.046 69.0142 30.6132 69.2611 31.1493C69.482 31.6368 69.9324 31.9989 70.5894 32.2383L70.8102 32.3237L70.8132 32.5605C70.8132 32.6318 70.8647 34.1655 72.5488 34.5903C72.8242 34.3081 73.0738 34.0543 73.2575 33.8434C72.9132 33.0394 73.0939 32.2184 73.5931 31.8163C73.5701 31.9019 73.3522 33.9146 74.9759 34.6615L75.2427 34.787L75.1624 35.0693C75.1366 35.1547 74.5944 37.102 76.5596 37.8261L76.9068 37.9574L76.7519 38.2937C76.7174 38.3678 75.9456 40.1354 77.7616 41.1389H81.7007V38.0314C80.3008 37.8602 79.7069 36.7428 79.5548 35.9503C78.9034 35.839 78.3987 35.5596 78.0544 35.1035C77.2281 34.0231 77.9396 33.0337 77.9482 32.9795C77.9453 32.9881 77.9482 34.043 78.6023 34.693C78.9264 35.0065 79.311 35.2489 79.8934 35.3031L80.1802 35.3288L80.2061 35.6195C80.2118 35.6822 80.3695 37.1078 81.7037 37.3329L81.7007 30.9866C81.7007 30.0032 81.9905 29.014 82.3377 28.1016H74.3619V28.1102Z" fill="white"/>
<path d="M63.7618 31.0179L63.6558 35.0605L64.1175 35.129L65.2479 31.2517L64.6741 30.0601L63.7618 31.0179Z" fill="white"/>
<path d="M76.2243 49.5577C76.2588 49.5577 76.2988 49.5635 76.3363 49.5721C77.039 49.7716 77.2171 52.2919 78.4507 52.5172C78.5711 52.5427 78.6829 52.5485 78.7806 52.5485C79.1364 52.5485 79.3485 52.3973 79.5781 52.1292C79.5781 52.1292 78.9583 51.1599 78.4937 50.5071C77.8768 49.6519 77.3978 48.617 76.25 48.617C76.2243 48.617 76.1899 48.617 76.1612 48.6199C75.7824 48.6398 75.5502 48.8222 75.5502 48.8222C75.0853 48.5313 74.652 48.4317 74.2591 48.4317C73.539 48.4317 72.9795 48.7595 72.7012 48.7595H72.6897L70.1249 48.5088C69.7233 48.4716 69.4077 48.0696 69.293 47.9128C69.2642 47.8701 69.2498 47.8444 69.2498 47.8444C69.2498 47.7759 69.2498 47.7048 69.2441 47.6419C69.158 45.5579 67.5343 44.6657 66.9575 44.6514C66.9575 44.6514 67.0264 44.255 66.8687 44.1039L66.3034 44.7854L64.4472 43.8588L65.7698 45.3954L64.648 46.6471C64.5075 46.7895 64.5247 46.9833 64.582 47.0632L65.067 47.488L65.6808 47.1173C65.7124 47.0944 65.7669 47.0889 65.8357 47.0889C66.0051 47.0889 66.2603 47.1316 66.4899 47.1316C66.7395 47.1316 66.9575 47.0775 66.9835 46.8437C66.9059 47.6164 66.1858 48.9591 66.6592 50.0138L67.0093 50.8094L64.7427 50.4844L63.6812 52.2662C63.3542 52.8592 63.3024 53.5006 63.6181 53.8485L64.0141 54.3417C64.0141 54.3417 64.5706 53.7544 64.6968 53.3695L64.5161 53.1728C64.3639 53.0075 64.3727 52.8593 64.4646 52.6795L65.1299 51.582L67.8068 52.2091L67.9473 51.9697C68.1281 51.6704 68.3892 51.5792 68.6762 51.5792C68.7936 51.5792 68.9142 51.5935 69.0404 51.6134C69.5368 51.7102 70.3545 51.8414 71.172 51.8414C72.07 51.8414 72.9595 51.6818 73.4328 51.1543C74.4024 52.5827 76.3677 52.8107 76.2129 53.5348L75.6964 55.9809C76.0378 55.9667 76.3677 55.944 76.6804 55.9012L77.171 53.3552C77.2255 53.0786 77.2772 52.7052 77.2772 52.7052C77.0879 52.5142 76.6288 52.1093 76.3706 51.619C76.0234 50.9576 76.2129 50.6127 75.8886 49.7517C75.9002 49.7573 75.9976 49.5577 76.2243 49.5577ZM66.2115 45.9827C66.0796 45.98 65.9849 45.8688 65.9907 45.7375C66.0023 45.6121 66.1083 45.5124 66.2375 45.5237C66.3695 45.5294 66.4641 45.6434 66.4584 45.7688C66.4468 45.8943 66.3379 45.9912 66.2115 45.9827Z" fill="white"/>
<path d="M62.5561 51.8726C62.5561 51.8726 63.4427 51.5105 63.5231 51.2511L63.4055 50.9573C63.3222 50.7663 63.3337 50.5582 63.4944 50.4441L64.4526 49.7856L66.0535 50.0906C66.0535 50.0906 65.7637 49.7315 65.7925 49.2497L64.2662 48.9275L62.8259 49.7998C62.2091 50.2589 62.1632 51.0086 62.3668 51.4536L62.5561 51.8726Z" fill="white"/>
<path d="M73.8716 56.0178C74.1585 56.0064 74.474 56.0006 74.8213 56.0006C74.8213 56.0006 75.6446 53.6088 75.6905 53.5317C75.2286 53.3294 74.2704 52.8249 73.9002 52.5938C74.1442 52.956 74.738 53.3721 74.6204 53.6915L73.8716 56.0178Z" fill="white"/>
<path d="M81.709 41.832H58.9497V50.3392C58.9497 53.8173 61.483 55.9954 65.2212 55.9954C68.3456 55.9954 69.1689 56.115 70.3309 57.2612C71.1313 56.4686 71.7941 56.172 73.1539 56.0609L73.1855 55.9298L73.9027 53.726C73.8626 53.6776 72.6891 52.3518 72.6891 52.3518C72.2244 52.5058 71.8342 52.5315 71.1773 52.5315C70.503 52.5315 69.7427 52.4546 68.9193 52.3006C68.8362 52.2806 68.7588 52.2749 68.6811 52.2749C68.5808 52.2749 68.5722 52.2835 68.5463 52.3319L68.4029 52.5657L68.1418 52.9934L67.6513 52.8822L65.468 52.372L65.1697 52.8622L65.2155 52.9135L65.4822 53.2044L65.3648 53.5836C65.2041 54.0795 64.6819 54.6582 64.5241 54.818L63.979 55.3995L63.4827 54.7752L63.1096 54.3105C62.7167 53.8744 62.6248 53.2044 62.8458 52.503C62.84 52.5086 62.8315 52.5116 62.8227 52.5116L62.2059 52.7653L61.9277 52.1666L61.7326 51.7418C61.3969 50.9948 61.5202 49.9029 62.4239 49.2444L64.1827 48.258L65.8554 48.5858C65.8954 48.4262 65.9557 47.856 66.0044 47.7106C65.9728 47.7077 65.9413 47.6992 65.9098 47.6992L64.9458 48.0555L64.0162 47.4168C64.0162 47.4168 63.652 47.0691 63.9818 46.7213L64.8826 45.3671L62.6019 42.5218L66.1078 43.9529L66.34 43.6651L66.8135 43.1035L67.35 43.6109C67.5022 43.7563 67.5882 43.936 67.6311 44.1156C68.598 44.489 70.328 45.5923 70.48 47.3855L69.9378 47.6022V47.6165C70.0611 47.7619 70.1643 47.8217 70.1961 47.8274L72.6978 48.0727C72.7609 48.0613 72.8412 48.0326 72.9301 48.007C73.24 47.9016 73.7076 47.7504 74.2614 47.7504C74.7118 47.7504 75.1479 47.8531 75.5666 48.047C75.7216 47.99 75.9109 47.9472 76.1291 47.933L76.2495 47.93C77.5892 47.93 78.2549 48.925 78.7885 49.7176C78.8775 49.8544 78.9664 49.9857 79.0583 50.1139C79.5259 50.7696 80.1369 51.7303 80.1627 51.7704L80.4382 52.1979L80.0996 52.5886C79.8386 52.8878 79.4484 53.2385 78.7771 53.2385C78.6393 53.2385 78.4873 53.2243 78.3238 53.1929C78.1802 53.1672 78.0513 53.1245 77.925 53.0732C77.9048 53.2044 77.8791 53.3612 77.8532 53.4952L77.4142 55.7701C80.0395 55.1287 81.7064 53.1588 81.7064 50.342L81.709 41.832Z" fill="#FFDD2D"/>
<path d="M58.951 41.148H76.6496C75.7659 40.2415 75.7773 39.0926 76.004 38.3456C75.7458 38.2231 75.5335 38.0747 75.3442 37.9151C74.6527 38.4226 72.5411 39.9507 71.9904 40.3327L71.8728 40.4125L64.9269 39.1638H64.7863C64.62 39.1638 64.376 39.1581 64.1093 39.1268C64.0346 39.4375 63.765 39.6514 63.4551 39.6514C63.4207 39.6514 63.3806 39.6486 63.3433 39.6399C63.1626 39.6085 63.0046 39.5174 62.8986 39.3662C62.7895 39.218 62.7466 39.0412 62.778 38.8588L62.8039 38.7106C62.0867 38.2087 61.4268 37.0883 61.7195 35.9081L61.7482 35.7826L61.8485 35.7113C61.8628 35.6999 61.9834 35.6202 62.1612 35.5174L61.6564 35.4405C61.4669 35.4063 61.3407 35.2323 61.3695 35.047C61.401 34.8589 61.5789 34.7249 61.7654 34.762L62.9675 34.9502L63.0765 30.7422L64.8666 28.8604L65.9827 31.1955L64.8036 35.2437L65.8651 35.409C66.0516 35.4377 66.1807 35.6115 66.152 35.8025C66.1232 35.9708 65.9799 36.0875 65.8106 36.0875C65.7933 36.0875 65.7732 36.0875 65.7562 36.0848L64.8924 35.9451C64.904 35.9708 64.9212 35.985 64.9327 36.0135C65.0246 36.2016 65.2282 36.3385 65.3487 36.3956L70.6447 36.4782C70.8686 36.2616 71.4251 35.7198 71.996 35.1469C70.6935 34.6564 70.2203 33.5389 70.1398 32.7977C69.4111 32.4896 68.9091 32.028 68.6308 31.4264C68.2921 30.6823 68.4128 29.9383 68.5016 29.576C67.7959 29.3195 67.0529 28.8519 66.2955 28.105H58.3198C58.6612 29.0173 58.951 30.0065 58.951 30.9902V41.148Z" fill="#FFDD2D"/>
<path d="M66.2395 45.5235C66.1103 45.5121 66.0012 45.6119 65.9927 45.7374C65.9841 45.8684 66.0815 45.9797 66.2137 45.9825C66.3399 45.9939 66.4517 45.8969 66.4631 45.7688C66.4631 45.6433 66.3714 45.5265 66.2395 45.5235Z" fill="black"/>
<path d="M81.6782 60.9499L80.3671 60.451L80.7285 59.1053L81.1273 57.6372C81.1273 57.6372 78.8036 58.8886 75.53 59.8295C74.6004 60.0947 73.8975 60.2144 73.8975 60.2144V61.2122C73.8975 61.2122 72.1474 61.5145 70.3774 61.5145H70.3573H70.3316H70.2971H70.2769C68.5067 61.5145 66.7568 61.2122 66.7568 61.2122V60.2144C66.7568 60.2144 66.0509 60.0947 65.1244 59.8295C61.8508 58.8886 59.5299 57.6372 59.5299 57.6372L59.9229 59.1053L60.2931 60.451L58.979 60.9499L57.5215 61.4916C59.1941 62.2928 61.5094 63.4616 63.6296 64.0374L63.1304 65.3944C63.1304 65.3944 65.8186 66.6118 70.2971 66.6232V66.6262H70.3114H70.3316H70.3486H70.3602V66.6232C74.8443 66.6118 77.5296 65.3944 77.5296 65.3944L77.0276 64.0374C79.1477 63.4616 81.4687 62.2928 83.1327 61.4916L81.6782 60.9499ZM59.0765 61.5828L61.234 60.87L60.5972 58.8032C61.5467 59.3391 63.6783 60.1431 64.9119 60.5165L63.8705 63.3589C61.9656 62.8373 60.379 62.23 59.0765 61.5828ZM70.3316 65.9106C67.8269 65.9106 64.9664 65.3374 64.1259 65.0409L65.4055 61.5999C66.467 61.9078 68.6761 62.2357 70.2797 62.2243H70.2827H70.3316H70.3745H70.3803C71.984 62.2357 74.1874 61.9078 75.2545 61.5999L76.5313 65.0409C75.6906 65.3404 72.8331 65.9106 70.3316 65.9106ZM76.7866 63.3589L75.7481 60.5165C76.9846 60.1431 79.1105 59.3391 80.0628 58.8032L79.429 60.87L81.5835 61.5828C80.278 62.23 78.7002 62.8373 76.7866 63.3589Z" fill="black"/>
<path d="M70.3285 7.2388C72.9967 7.2388 75.1313 8.1168 76.3102 9.05474C76.3102 9.05474 76.6604 6.95943 77.8567 5.10918L75.7078 5.35148L74.5832 2.97664L72.4229 4.0827L70.3285 2.02448L68.2399 4.0827L66.0768 2.97664L64.955 5.35148L62.8062 5.10918C64.0025 6.95943 64.3526 9.05474 64.3526 9.05474C65.5345 8.1168 67.6633 7.2388 70.3285 7.2388ZM64.8574 6.18389L65.4542 6.24663L65.7124 5.70781L66.4642 4.11129L67.8584 4.82688L68.3977 5.10054L68.8282 4.67869L70.3314 3.19621L71.8376 4.67869L72.2679 5.10054L72.8072 4.82688L74.193 4.11129L74.9533 5.70781L75.2058 6.24663L75.8026 6.18389L76.3705 6.11543C76.1095 6.69999 75.9173 7.25302 75.7796 7.71195C74.2762 6.87955 72.3196 6.40624 70.3258 6.40624C68.3403 6.40624 66.3865 6.87955 64.8776 7.71195C64.737 7.25302 64.5477 6.69705 64.2865 6.11543L64.8574 6.18389Z" fill="black"/>
<path d="M101.632 35.0438C105.083 35.0438 106.236 31.5542 106.285 31.4059L106.67 30.1773L105.376 30.2171H105.37C104.914 30.2171 101.107 30.1173 98.407 26.7076L98.1516 26.3911C96.3873 24.1617 94.7146 22.0435 91.7252 21.077C91.8113 20.9999 91.9347 20.9031 92.104 20.7948C93.6904 19.757 94.6143 18.4969 94.8466 17.0344C95.1852 14.8334 93.7737 13.0802 93.7104 13.0088L92.7494 11.8285L92.1499 13.2283C92.1098 13.3167 91.0998 15.5576 88.9768 15.5576H88.819C88.6727 15.549 88.535 15.5432 88.3973 15.5319C88.4718 14.5312 88.2881 12.9831 86.8768 11.532C85.1811 9.78438 83.0983 9.52216 82.008 9.52216C81.4257 9.52216 81.0383 9.59339 80.9982 9.59911L79.5465 9.8842L80.4415 11.0559C81.1446 11.9597 81.7815 13.6275 81.0269 14.4999C80.7859 14.7763 80.2896 15.0016 79.8133 15.2268C78.835 15.6745 77.501 16.2959 77.501 17.8812C77.501 18.9074 78.3014 19.9794 79.7532 20.8917C84.0507 23.5773 86.7017 26.3796 87.8464 29.4731C89.6166 34.2313 87.307 36.9453 85.0635 38.3737L84.0565 39.018L84.9373 39.8219C85.0549 39.9245 86.1336 40.8683 87.7258 41.0049C88.0271 41.025 88.3169 41.0421 88.5866 41.0421C89.608 41.0421 90.4774 40.8824 91.1831 40.6687C90.988 41.0079 90.7498 41.3528 90.4486 41.7007C89.1661 43.1774 87.5883 43.8502 85.3188 43.8845L84.4754 43.8988L84.4094 44.7398C84.4008 44.9079 84.3376 46.4675 85.8238 47.7931C86.0503 47.9984 86.3258 48.1665 86.6128 48.3063C85.6058 49.2071 84.5815 50.7752 84.3836 53.4636C84.2172 55.7072 83.6779 56.5369 83.6721 56.5455L82.7396 57.9595L84.4239 57.9824C87.2066 57.9824 89.3382 57.2183 90.8158 55.7072C91.6878 54.8121 92.1871 53.8029 92.4826 52.9077C92.9674 53.3182 93.593 53.6775 94.4077 53.8685C94.7176 53.9397 95.0561 53.9798 95.4205 53.9798C96.2066 53.9798 96.8635 53.8143 96.9382 53.7972L98.0141 53.5122L97.5377 52.5142C97.5033 52.4344 96.6054 50.4331 97.5722 47.5764C97.9882 46.342 98.2004 45.2359 98.3038 44.3748C98.9808 44.7255 99.8873 45.0163 101.061 45.0191C103.723 45.0191 104.897 43.0434 104.951 42.9608L105.476 42.0542L104.504 41.6551C101.33 40.3465 100.628 36.8312 100.487 34.9269C100.774 34.9809 101.101 35.0323 101.471 35.0438H101.632ZM104.148 42.4962C104.148 42.4962 103.218 44.1011 101.087 44.1011H101.061C98.5017 44.087 97.4688 42.536 97.4688 42.536C97.4688 42.536 97.6181 44.5545 96.6942 47.277C95.584 50.5586 96.7028 52.9048 96.7028 52.9048C96.7028 52.9048 96.1062 53.0645 95.4175 53.0645C95.1537 53.0645 94.8783 53.0388 94.62 52.9703C92.4826 52.4658 91.9491 50.5328 91.9491 50.5328C91.9491 50.5328 92.1469 57.0645 84.484 57.0645H84.4239C84.4239 57.0645 85.098 56.1522 85.2987 53.5263C85.6631 48.6797 88.9654 48.0155 88.9654 48.0155C88.9654 48.0155 87.2038 47.7959 86.4406 47.1146C85.2472 46.0397 85.3303 44.7968 85.3303 44.7968C88.0271 44.7597 89.7917 43.8474 91.1371 42.2994C92.5946 40.6231 92.8356 38.8184 92.8356 38.8184C92.8356 38.8184 91.3867 40.1241 88.5836 40.1241C88.337 40.1241 88.073 40.1127 87.8035 40.087C86.478 39.9815 85.5599 39.1434 85.5599 39.1434C88.4776 37.2845 90.5259 34.0403 88.71 29.1536C87.2554 25.2393 83.761 22.3142 80.2438 20.1104C79.0731 19.3836 78.4219 18.5767 78.4219 17.8812C78.4219 16.2446 80.7629 16.1933 81.724 15.0928C82.8315 13.8157 82.1372 11.7429 81.1761 10.4972C81.1761 10.4972 81.5004 10.4315 82.011 10.4315C83.0237 10.4315 84.7767 10.6852 86.2169 12.1679C88.1304 14.135 87.3358 16.276 87.3358 16.276L87.8494 16.3759C88.1563 16.4414 88.4604 16.4528 88.776 16.4669C88.8449 16.4669 88.9135 16.4699 88.9824 16.4699C91.7625 16.4699 93.0047 13.5819 93.0047 13.5819C93.0047 13.5819 95.9598 17.194 91.6104 20.0222C90.8616 20.5068 90.5318 20.9545 90.6178 21.4334L90.6866 21.7469L90.9965 21.8011C94.1495 22.6507 95.7447 24.8117 97.6927 27.2693C100.651 31.0068 104.836 31.1265 105.353 31.1265H105.407C105.407 31.1265 104.452 34.1229 101.638 34.1229C101.591 34.1229 101.551 34.1229 101.503 34.12C100.209 34.0744 99.546 33.5812 99.546 33.5812C99.546 33.5812 99.0382 40.3864 104.148 42.4962Z" fill="black"/>
<path d="M95.5697 21.4533C96.8577 22.1344 97.6065 23.0469 98.2636 23.8565C98.909 24.6462 99.523 25.4075 100.481 25.7238C100.823 25.8407 101.184 25.895 101.551 25.895C102.992 25.895 104.438 25.0197 104.986 23.8079L105.536 22.5935L104.202 22.5136C104.139 22.511 102.423 22.3568 100.513 20.4155C99.7266 19.6199 98.7772 19.2009 97.7528 19.2009C96.502 19.2009 95.5753 19.8224 95.4721 19.8851L94.2441 20.7433L95.5697 21.4533ZM97.7558 20.1189C98.3984 20.1189 99.1472 20.3356 99.8558 21.0626C102.079 23.3062 104.148 23.4317 104.148 23.4317C103.772 24.2586 102.682 24.9853 101.554 24.9853C101.293 24.9853 101.032 24.9455 100.771 24.8572C99.2419 24.344 98.6939 22.0633 96.0056 20.6435C96.0056 20.6435 96.7572 20.1189 97.7558 20.1189Z" fill="black"/>
<path d="M96.1724 33.5667V33.6122C95.3979 27.4029 90.859 22.9185 85.8097 20.19C85.342 19.942 84.9117 19.7311 84.493 19.5287C86.0307 19.7653 88.5065 19.7938 90.4173 18.146C90.4173 18.146 87.4938 20.2841 81.5034 18.3427C83.1617 19.4118 86.3835 20.92 89.3242 23.3632C96.6774 29.7835 91.4156 36.047 91.4156 36.047C94.058 33.3072 94.167 30.3708 93.3893 27.9732C94.7809 30.2738 95.6703 33.0678 95.5326 36.5116C95.329 41.4466 92.6006 45.7145 89.7286 49.1443C88.3488 50.809 88.0389 52.8532 88.0389 52.8532C88.0389 52.8532 88.5954 51.0486 90.1934 49.1927C93.2719 45.6119 95.9026 41.8915 96.2469 36.5315C96.5654 37.5038 97.8766 40.2093 99.9565 41.2272C99.9622 41.23 97.3486 39.6648 96.1724 33.5667Z" fill="black"/>
<path d="M56.9851 56.5424C56.9822 56.5339 56.4487 55.7042 56.2766 53.4606C56.0755 50.7721 55.0543 49.2042 54.0444 48.3032C54.3371 48.1664 54.6067 47.9981 54.8333 47.79C56.3167 46.4643 56.2535 44.9049 56.2449 44.7366L56.1876 43.8955L55.3383 43.8814C53.0747 43.8442 51.4939 43.1714 50.2115 41.6975C49.9132 41.3498 49.672 41.0048 49.4769 40.6655C50.1828 40.8793 51.0464 41.0389 52.0705 41.0389C52.3459 41.0389 52.63 41.0219 52.9312 41.0019C54.5234 40.865 55.6023 39.9243 55.7227 39.8187L56.6035 39.0149L55.5965 38.3704C53.3445 36.9393 51.0434 34.2253 52.8107 29.4698C53.9555 26.3766 56.6035 23.5741 60.9069 20.8885C62.3586 19.9762 63.1534 18.9043 63.1534 17.8779C63.1534 16.293 61.8221 15.6685 60.8439 15.2238C60.3677 14.9985 59.8713 14.7733 59.6302 14.4968C58.8729 13.6272 59.5126 11.9565 60.2127 11.0528L61.1135 9.88101L59.6562 9.59594C59.6131 9.59036 59.2315 9.51898 58.6462 9.51898C57.556 9.51898 55.4789 9.78134 53.7804 11.529C52.3661 12.9829 52.1796 14.5311 52.2513 15.5288C52.1135 15.5402 51.976 15.546 51.8325 15.5545H51.6776C49.5488 15.5545 48.5418 13.3136 48.5017 13.2252L47.902 11.8254L46.9322 13.0058C46.8777 13.077 45.4605 14.8332 45.8048 17.0312C46.0343 18.4938 46.9581 19.7539 48.5446 20.7917C48.7168 20.9 48.8373 20.9968 48.9234 21.0739C45.9367 22.0402 44.2671 24.1614 42.5025 26.3909L42.2473 26.7074C39.5505 30.117 35.7348 30.2168 35.2787 30.2168L33.979 30.177L34.3749 31.4058C34.4207 31.5539 35.5712 35.0434 39.0255 35.0434L39.1918 35.0378C39.5562 35.0264 39.8833 34.9779 40.1759 34.9209C40.0324 36.8224 39.3296 40.3377 36.1535 41.6491L35.1839 42.0482L35.709 42.9548C35.7607 43.0374 36.9369 45.0132 39.605 45.0132C40.7697 45.0102 41.6762 44.7195 42.3563 44.3689C42.4596 45.2299 42.6718 46.336 43.0878 47.5705C44.0546 50.4272 43.1539 52.4285 43.1195 52.5083L42.6433 53.5062L43.7219 53.7913C43.7936 53.8082 44.4564 53.9738 45.2395 53.9738C45.6067 53.9738 45.9454 53.9337 46.2495 53.8626C47.0671 53.6715 47.6983 53.3123 48.1774 52.9017C48.4701 53.7969 48.9722 54.8062 49.8413 55.7012C51.3218 57.2124 53.4505 57.9763 56.2335 57.9763L57.9204 57.9536L56.9851 56.5424ZM56.1703 57.064C48.5073 57.064 48.7024 50.5325 48.7024 50.5325C48.7024 50.5325 48.1688 52.4655 46.0314 52.9702C45.776 53.0385 45.5035 53.0642 45.2368 53.0642C44.5482 53.0642 43.9543 52.9047 43.9543 52.9047C43.9543 52.9047 45.0676 50.5582 43.9572 47.2768C43.0391 44.5541 43.1882 42.5357 43.1882 42.5357C43.1882 42.5357 42.1583 44.0867 39.5964 44.1009H39.5706C37.439 44.1009 36.5093 42.4957 36.5093 42.4957C41.6161 40.389 41.1141 33.5867 41.1141 33.5867C41.1141 33.5867 40.4514 34.077 39.1545 34.1254C39.1086 34.1282 39.0656 34.1282 39.0197 34.1282C36.2024 34.1282 35.2499 31.1319 35.2499 31.1319H35.3072C35.8266 31.1319 40.0067 31.0123 42.9646 27.2747C44.9126 24.8172 46.5105 22.659 49.6579 21.8065L49.9735 21.7524L50.0422 21.4388C50.1283 20.96 49.8012 20.5123 49.0526 20.0275C44.703 17.1965 47.6582 13.5874 47.6582 13.5874C47.6582 13.5874 48.8946 16.4724 51.6804 16.4724C51.7492 16.4724 51.8124 16.4697 51.8841 16.4697C52.1968 16.4525 52.5067 16.441 52.8107 16.3755L53.3243 16.2757C53.3243 16.2757 52.5296 14.1346 54.4461 12.1675C55.8863 10.6822 57.6393 10.4313 58.649 10.4313C59.1626 10.4313 59.4811 10.4969 59.4811 10.4969C58.5228 11.7456 57.8287 13.8154 58.936 15.0925C59.8942 16.1903 62.2324 16.2444 62.2324 17.8808C62.2324 18.5737 61.5811 19.3833 60.4106 20.1102C56.8904 22.314 53.396 25.239 51.9443 29.1534C50.1311 34.04 52.1768 37.2814 55.1003 39.1431C55.1003 39.1431 54.1821 39.9814 52.8539 40.0867C52.5841 40.1124 52.3231 40.1238 52.0705 40.1238C49.2704 40.1238 47.8216 38.8181 47.8216 38.8181C47.8216 38.8181 48.0626 40.6227 49.5114 42.2991C50.8657 43.8472 52.63 44.7595 55.3269 44.7965C55.3269 44.7965 55.413 46.0395 54.2195 47.1143C53.4534 47.7928 51.6919 48.0152 51.6919 48.0152C51.6919 48.0152 54.9969 48.6795 55.3583 53.5261C55.5564 56.1517 56.2247 57.064 56.2247 57.064H56.1703Z" fill="black"/>
<path d="M39.1032 25.8981C39.4732 25.8981 39.8348 25.844 40.1763 25.7271C41.1401 25.4106 41.7513 24.6494 42.3967 23.8598C43.0566 23.0501 43.7996 22.1379 45.0878 21.4564L46.4132 20.7494L45.1826 19.8912C45.0792 19.8257 44.1554 19.207 42.9074 19.207C41.8803 19.207 40.9279 19.6234 40.1445 20.4216C38.234 22.3602 36.5212 22.5171 36.458 22.5199L35.124 22.5968L35.6719 23.814C36.2228 25.0201 37.6658 25.8981 39.1032 25.8981ZM40.8017 21.0659C41.5132 20.3388 42.2619 20.1223 42.9074 20.1223C43.9 20.1223 44.6519 20.6467 44.6519 20.6467C41.9664 22.0694 41.4156 24.3473 39.8807 24.8604C39.6283 24.9488 39.3643 24.9888 39.1032 24.9888C37.9756 24.9888 36.8855 24.2647 36.5125 23.435C36.5125 23.4322 38.5782 23.3067 40.8017 21.0659Z" fill="black"/>
<path d="M45.1251 36.5147C44.9815 33.0707 45.8709 30.2768 47.2652 27.9762C46.4877 30.3737 46.5939 33.3103 49.2391 36.05C49.2391 36.05 43.9775 29.7864 51.3335 23.3662C54.277 20.9229 57.496 19.4147 59.1513 18.3456C53.164 20.2872 50.2405 18.1489 50.2405 18.1489C52.151 19.7967 54.6271 19.7684 56.1648 19.5288C55.7488 19.7312 55.3128 19.9422 54.8508 20.1903C49.7958 22.9186 45.2599 27.403 44.4825 33.6124V33.564C43.309 39.6621 40.6982 41.2273 40.6982 41.2273C42.7755 40.2094 44.0837 37.5068 44.4021 36.5317C44.7493 41.8916 47.38 45.612 50.4585 49.1928C52.0565 51.0487 52.6188 52.8533 52.6188 52.8533C52.6188 52.8533 52.3061 50.8093 50.9203 49.1444C48.0542 45.7204 45.3259 41.4497 45.1251 36.5147Z" fill="black"/>
<path d="M68.5991 23.9504V25.1822C69.0267 24.6661 69.8531 24.7717 69.8531 24.7717V26.5477C69.8531 26.5477 69.8243 27.4201 69.5115 27.7993H70.4066H71.299C70.9919 27.4231 70.9604 26.5477 70.9604 26.5477V24.7717C70.9604 24.7717 71.7866 24.6661 72.2113 25.1822V23.9504H70.4066H68.5991Z" fill="black"/>
<path d="M67.8298 16.6465C68.4007 17.0971 68.7307 17.1711 68.7421 17.1797L68.9659 17.2823V16.122L66.8657 15.2439C66.8657 15.2467 66.8858 15.9167 67.8298 16.6465Z" fill="black"/>
<path d="M72.8241 16.6465C73.7738 15.9167 73.7911 15.2439 73.7911 15.2439L71.6909 16.122V17.2823L71.9119 17.1797C71.9263 17.1711 72.2532 17.0971 72.8241 16.6465Z" fill="black"/>
<path d="M76.6092 11.9228C76.6092 10.1638 73.6283 8.58154 70.3376 8.58154H70.3348H70.3262H70.3175C67.0269 8.58154 64.0461 10.1638 64.0461 11.9228L64.112 12.3562L65.4259 19.8513L64.1063 20.6125L60.6923 22.5939H60.7037C60.7037 22.5939 59.9349 22.9845 59.5791 23.2268C58.2794 24.1248 58.004 25.4334 58.7586 25.9751C58.9451 24.9089 59.7941 23.7912 61.3836 23.7912C62.5284 23.7912 63.4005 24.3786 64.1063 25.2596C64.287 25.4819 64.4591 25.7184 64.6198 25.9751C64.8177 26.2972 65.0157 26.5794 65.2137 26.8532H56.4204C57.0659 28.1445 57.6797 29.5131 57.6797 30.9984V50.3392C57.6797 55.0204 61.3033 57.2555 65.2223 57.2555C68.2518 57.2555 68.6593 57.1187 70.3318 58.7723C71.9958 57.1158 72.4033 57.2555 75.4356 57.2555C79.3576 57.2555 82.9753 55.0204 82.9753 50.3392V30.9984C82.9753 29.5131 83.5893 28.1445 84.2375 26.8532H75.4415C75.6366 26.5824 75.8344 26.2972 76.0325 25.9751C76.196 25.7184 76.3653 25.4819 76.5431 25.2596C77.2547 24.3757 78.1239 23.7912 79.2687 23.7912C80.8579 23.7912 81.7043 24.9059 81.8937 25.9751C82.6483 25.4334 82.3758 24.1248 81.0674 23.2268C80.7174 22.9845 79.9486 22.5939 79.9486 22.5939H79.96L76.546 20.6125L75.232 19.8513L76.546 12.3562L76.6092 11.9228ZM65.3399 12.7952L69.959 14.3519V21.5619L66.5593 19.7801L65.3399 12.7952ZM66.2953 28.1105C67.0527 28.8601 67.7957 29.325 68.5016 29.5816C68.4097 29.9435 68.2891 30.6905 68.6305 31.4346C68.9089 32.0332 69.4139 32.4952 70.1397 32.8031C70.22 33.5444 70.6905 34.6591 71.9958 35.1522C71.4249 35.7253 70.8683 36.2641 70.6417 36.4837L65.3486 36.4009C65.228 36.3411 65.0243 36.2071 64.9325 36.0161C64.9209 35.9904 64.9038 35.9761 64.8951 35.9476L65.7588 36.0872C65.7789 36.0902 65.7961 36.0902 65.8133 36.0902C65.9798 36.0902 66.126 35.9761 66.1547 35.8052C66.1835 35.6142 66.0543 35.4402 65.8678 35.4117L64.8063 35.2464L65.9854 31.2009L64.8694 28.8659L63.0793 30.7475L62.9702 34.9556L61.768 34.7674C61.5815 34.7303 61.4037 34.8672 61.3722 35.0524C61.3435 35.2378 61.4696 35.4117 61.659 35.4459L62.164 35.5228C61.9832 35.6255 61.8656 35.7054 61.8512 35.7168L61.748 35.788L61.7193 35.9135C61.4267 37.0937 62.0894 38.2141 62.8038 38.7158L62.7779 38.8642C62.7492 39.0467 62.7894 39.2235 62.8983 39.3717C63.0016 39.5228 63.1623 39.614 63.3403 39.6453C63.3774 39.651 63.4177 39.6538 63.4521 39.6538C63.762 39.6538 64.0317 39.4401 64.109 39.1293C64.376 39.1608 64.6198 39.1665 64.7861 39.1665H64.9269L71.8725 40.4122L71.9901 40.3352C72.5439 39.9504 74.6525 38.4223 75.3438 37.9176C75.5333 38.0802 75.7455 38.2283 76.0038 38.351C75.7799 39.098 75.7655 40.2469 76.6521 41.1535H58.9507V31.0012C58.9507 30.0177 58.6609 29.0284 58.3195 28.1161H66.2953V28.1105ZM74.8791 37.3988C74.1763 37.912 72.3688 39.2235 71.7146 39.6796L65.403 38.5535C65.4174 38.4964 65.4316 38.4422 65.446 38.3852C65.5293 38.0602 65.6126 37.6155 65.6182 37.0937L70.9229 37.1792L71.0233 37.0768C71.1036 36.9969 72.7849 35.3832 73.6425 34.4537C73.8464 34.7075 74.1016 34.9499 74.4345 35.1637C74.3198 35.7795 74.3685 36.6575 74.8791 37.3988ZM64.3129 36.3126C64.462 36.6233 64.7318 36.8315 64.9181 36.9483C64.9125 37.2391 64.8838 37.6924 64.8063 38.0915C64.7891 38.18 64.7661 38.2626 64.7402 38.3454C64.7258 38.3966 64.7117 38.4394 64.7001 38.4736C64.4219 38.4736 63.8738 38.4394 63.4263 38.2769C62.9301 38.0944 62.1897 37.1907 62.3618 36.1957C62.5771 36.0645 63.0734 35.788 63.5381 35.788C63.8968 35.7853 64.1408 35.9533 64.3129 36.3126ZM63.6558 35.061L63.762 31.0213L64.6743 30.0606L65.2482 31.2522L64.1178 35.1294L63.6558 35.061ZM74.8218 56.004C74.4774 56.004 74.1591 56.0098 73.8721 56.0211L74.6237 53.6976C74.7414 53.3754 74.1475 52.9621 73.9038 52.6C74.2737 52.8309 75.232 53.3355 75.694 53.5379C75.6451 53.612 74.8218 56.004 74.8218 56.004ZM77.1801 53.364L76.6895 55.907C76.3767 55.9498 76.0439 55.9727 75.7026 55.9869L76.219 53.5408C76.3739 52.8138 74.4086 52.5887 73.439 51.1602C72.9656 51.6906 72.0734 51.8473 71.1782 51.8473C70.3606 51.8473 69.5429 51.7162 69.0465 51.6193C68.9203 51.5993 68.7999 51.585 68.6823 51.585C68.3953 51.585 68.1342 51.6734 67.9535 51.9757L67.81 52.2152L65.1334 51.588L64.4678 52.6825C64.373 52.8594 64.3674 53.0105 64.5193 53.1758L64.7001 53.3726C64.5767 53.7604 64.0202 54.3448 64.0202 54.3448L63.6214 53.8516C63.3059 53.5009 63.3574 52.8623 63.6873 52.2693L64.7488 50.4875L67.0154 50.8124L66.6625 50.0142C66.1891 48.9594 66.9093 47.6166 66.9866 46.844C66.9609 47.0778 66.7456 47.1291 66.4932 47.1291C66.2638 47.1291 66.0084 47.0863 65.8391 47.0863C65.7732 47.0863 65.7158 47.092 65.6841 47.1147L65.0702 47.4854L64.5854 47.0606C64.528 46.978 64.5078 46.787 64.6514 46.6444L65.7732 45.3957L64.4477 43.859L66.3039 44.7857L66.8692 44.1042C67.0239 44.2553 66.958 44.6514 66.958 44.6514C67.5375 44.6658 69.1613 45.5582 69.2474 47.6393C69.2532 47.7021 69.2532 47.7733 69.2532 47.8417C69.2532 47.8417 69.2676 47.8674 69.2961 47.9102C69.4109 48.0671 69.7264 48.469 70.1281 48.506L72.6931 48.757H72.7046C72.9856 48.757 73.5451 48.429 74.2623 48.429C74.6525 48.429 75.0886 48.5288 75.5534 48.8197C75.5534 48.8197 75.7857 48.6373 76.1645 48.6174C76.1932 48.6144 76.2246 48.6144 76.2534 48.6144C77.4039 48.6144 77.8801 49.6464 78.4969 50.5046C78.9618 51.1574 79.5813 52.1267 79.5813 52.1267C79.3519 52.3975 79.1395 52.5459 78.7838 52.5459C78.6863 52.5459 78.5742 52.5373 78.4538 52.5145C77.2202 52.2892 77.0423 49.7689 76.3394 49.5695C76.3023 49.558 76.2621 49.5552 76.2276 49.5552C76.0009 49.5552 75.9005 49.7547 75.9005 49.7547C76.2218 50.6129 76.0353 50.9608 76.3797 51.6222C76.6379 52.1125 77.0968 52.5172 77.2862 52.7082C77.2862 52.714 77.2346 53.0846 77.1801 53.364ZM63.4062 50.9578L63.5238 51.2514C63.4463 51.5081 62.5569 51.873 62.5569 51.873L62.3648 51.4568C62.1611 51.0121 62.2041 50.2622 62.8239 49.8032L64.264 48.9308L65.7903 49.2529C65.7616 49.7348 66.0513 50.0941 66.0513 50.0941L64.4504 49.789L63.4922 50.4476C63.3316 50.5587 63.3201 50.7669 63.4062 50.9578ZM77.421 55.7672L77.86 53.4923C77.8829 53.3584 77.9117 53.2015 77.9318 53.0705C78.0551 53.1217 78.187 53.1644 78.3306 53.1902C78.4939 53.2214 78.6461 53.2358 78.7838 53.2358C79.455 53.2358 79.8453 52.885 80.1063 52.5857L80.445 52.1951L80.1695 51.7676C80.1437 51.7247 79.5354 50.7668 79.065 50.111C78.9732 49.9828 78.8841 49.8545 78.7952 49.7149C78.2617 48.9223 77.5931 47.9273 76.2534 47.9273L76.1329 47.9301C75.9121 47.9444 75.7226 47.9872 75.5706 48.0442C75.1487 47.8475 74.7156 47.7477 74.2653 47.7477C73.7114 47.7477 73.2438 47.8988 72.934 48.0044C72.845 48.0299 72.7647 48.0584 72.7016 48.0699L70.197 47.8247C70.1655 47.819 70.0622 47.7592 69.9389 47.6109V47.5995L70.481 47.3828C70.3291 45.5896 68.596 44.4861 67.6293 44.1127C67.5863 43.9331 67.5002 43.7536 67.3482 43.6081L66.8087 43.1008L66.3354 43.6652L66.1031 43.953L62.5972 42.5219L64.878 45.3671L63.9772 46.7214C63.6472 47.0691 64.0116 47.4169 64.0116 47.4169L64.941 48.0527L65.9051 47.6963C65.9395 47.6963 65.9683 47.7049 65.9998 47.7078C65.9539 47.8532 65.8936 48.4234 65.8535 48.5831L64.1809 48.2551L62.4221 49.2415C61.5184 49.9001 61.395 50.9921 61.7308 51.7389L61.9259 52.1637L62.2041 52.7624L62.818 52.5088C62.8267 52.5059 62.8353 52.5031 62.841 52.4973C62.6202 53.1987 62.7091 53.8657 63.105 54.3049L63.478 54.7724L63.9742 55.3968L64.5193 54.8152C64.6799 54.6555 65.1993 54.0768 65.36 53.5807L65.4776 53.2015L65.2108 52.9107L65.1678 52.8594L65.466 52.3691L67.6493 52.8793L68.1399 52.9906L68.4009 52.563L68.5445 52.3292C68.5703 52.2808 68.579 52.2721 68.6793 52.2721C68.7568 52.2721 68.8342 52.2808 68.9175 52.2978C69.7408 52.4517 70.5012 52.5287 71.1753 52.5287C71.8294 52.5287 72.2196 52.5031 72.6873 52.3491C72.6873 52.3491 73.8606 53.672 73.9009 53.7233L73.1837 55.9241L73.1519 56.0581C71.7921 56.1665 71.1293 56.463 70.3291 57.2585C69.167 56.1124 68.3436 55.9926 65.2194 55.9926C61.481 55.9926 58.9478 53.8145 58.9478 50.3363V41.832H81.7043L81.7102 50.3363C81.713 53.1589 80.0462 55.1259 77.421 55.7672ZM82.3414 28.1105C81.9941 29.0228 81.7043 30.012 81.7043 30.9957L81.7072 37.3417C80.3733 37.1194 80.2154 35.6911 80.2096 35.6284L80.1839 35.3376L79.8971 35.3119C79.3174 35.2577 78.933 35.0126 78.6087 34.6989C77.9548 34.0489 77.9518 32.9941 77.9548 32.9856C77.9462 33.0397 77.2346 34.0289 78.0608 35.1095C78.4079 35.5656 78.91 35.845 79.5612 35.9562C79.7134 36.7488 80.3072 37.8664 81.7072 38.0373V41.1449H77.7711C75.955 40.1413 76.724 38.3737 76.7611 38.2998L76.9161 37.9633L76.569 37.8322C74.6037 37.1081 75.1431 35.158 75.1718 35.0753L75.2521 34.7903L74.9854 34.6648C73.3614 33.9178 73.5824 31.9022 73.6024 31.8196C73.1034 32.2216 72.9225 33.0426 73.2667 33.8466C73.0804 34.0576 72.8308 34.3141 72.5582 34.5936C70.877 34.1687 70.8254 32.6321 70.8254 32.5608L70.8224 32.3241L70.6016 32.2386C69.9446 31.9964 69.4942 31.6341 69.2733 31.1466C69.0237 30.6078 69.1126 30.0433 69.1814 29.7724C69.3736 29.8153 69.5658 29.8467 69.7494 29.8608C69.9389 29.881 70.134 29.8923 70.3291 29.8923H70.3406H70.3548C70.5499 29.8923 70.7421 29.881 70.9315 29.8608C71.9786 29.7583 73.1519 29.3108 74.3741 28.1077H82.3414V28.1105ZM76.2076 21.6957L77.7625 22.5939H77.7855L78.1756 22.8192C77.2976 23.0615 76.6263 23.4977 76.064 24.0706C76.0439 24.0878 76.0239 24.1107 76.0038 24.1306C75.8747 24.2674 75.7455 24.4156 75.6251 24.5668C75.6022 24.5952 75.5792 24.6265 75.5534 24.658C75.4329 24.8119 75.321 24.9688 75.212 25.1341C75.1946 25.1626 75.1746 25.1911 75.1545 25.2167C75.0255 25.4077 74.9021 25.6131 74.7787 25.824C73.6713 27.7199 71.9041 28.8517 70.3318 28.8546C68.7626 28.8517 66.9954 27.7199 65.888 25.824C65.7673 25.6187 65.6469 25.4191 65.5178 25.2254C65.4918 25.1883 65.469 25.1512 65.446 25.1198C65.3371 24.963 65.228 24.8091 65.116 24.6637C65.0875 24.6239 65.0617 24.5924 65.0329 24.5582C64.9125 24.4128 64.7891 24.2674 64.6657 24.1334C64.6398 24.1134 64.6226 24.0878 64.5969 24.0649C64.0317 23.4919 63.3632 23.0585 62.4824 22.8192L62.8782 22.5939H62.8956L64.4504 21.6957L66.0485 20.7864L70.3175 23.0956L70.3262 23.0872L70.3376 23.0956L74.6066 20.7864L76.2076 21.6957ZM74.1016 19.7828L70.699 21.5647V14.3519L75.3152 12.7952L74.1016 19.7828ZM70.3291 13.5593L65.2682 11.5722C65.6985 10.56 67.6838 9.69905 70.3291 9.69626C72.977 9.69905 74.9624 10.56 75.3897 11.5722L70.3291 13.5593Z" fill="black"/>
<path d="M13.1035 95.4629V86.5384H18.3713V83.2908H4V86.5384H9.26769V95.4629H13.1035ZM23.6142 90.3742V83.2908H19.9064V95.4629H23.1797L29.5724 88.3795V95.4629H33.2804V83.2908H30.0071L23.6142 90.3742ZM45.7546 90.9368V95.4629H49.4625V83.2908H45.7546V87.7401H39.7963V83.2908H36.0886V95.4629H39.7963V90.9368H45.7546ZM59.7887 95.4629C60.6325 95.4629 61.3997 95.3862 62.1157 95.1815C64.0336 94.6445 65.2867 93.0846 65.2867 90.9622C65.2867 88.9421 64.2125 87.5357 62.4993 86.8963C61.681 86.5895 60.7093 86.5638 59.7887 86.5638H55.9785V83.2908H52.2706V95.4629H59.7887ZM59.1495 89.428C59.6608 89.428 60.1466 89.428 60.5814 89.5815C61.1951 89.7859 61.5531 90.2974 61.5531 90.9111C61.5531 91.5504 61.1951 92.0875 60.607 92.3432C60.1978 92.522 59.7887 92.522 59.1495 92.522H55.9785V89.428H59.1495ZM71.9348 90.8599L76.3587 95.4629H81.2941L75.1313 89.1211L81.0639 83.2908H76.41L71.9348 87.8681H70.912V83.2908H67.204V95.4629H70.912V90.8599H71.9348ZM88.9237 82.9583C83.9372 82.9583 80.9453 85.7711 80.9453 89.4023C80.9453 93.0337 83.9372 95.8464 88.9237 95.8464C93.8845 95.8464 96.8765 93.0337 96.8765 89.4023C96.8765 85.7711 93.8845 82.9583 88.9237 82.9583ZM88.9237 92.8802C86.4432 92.8802 84.8577 91.397 84.8577 89.4023C84.8577 87.4078 86.4432 85.9501 88.9237 85.9501C91.3785 85.9501 92.9896 87.4078 92.9896 89.4023C92.9896 91.397 91.3785 92.8802 88.9237 92.8802ZM109.225 82.6003H105.517V83.8277C100.863 83.93 98.0758 85.899 98.0758 89.3768C98.0758 92.8545 100.863 94.6702 105.517 94.7725V95.9999H109.225V94.7725C113.905 94.6702 116.692 92.8545 116.692 89.3768C116.692 85.899 113.905 83.93 109.225 83.8277V82.6003ZM105.517 92.1641C102.96 92.0618 101.835 91.0134 101.835 89.3768C101.835 87.7401 102.96 86.5638 105.517 86.4616V92.1641ZM109.225 86.4616C111.808 86.5638 112.907 87.7401 112.907 89.3768C112.907 91.0134 111.808 92.0618 109.225 92.1641V86.4616ZM129.028 82.6003H125.32V83.8277C120.666 83.93 117.879 85.899 117.879 89.3768C117.879 92.8545 120.666 94.6702 125.32 94.7725V95.9999H129.028V94.7725C133.707 94.6702 136.495 92.8545 136.495 89.3768C136.495 85.899 133.707 83.93 129.028 83.8277V82.6003ZM125.32 92.1641C122.763 92.0618 121.638 91.0134 121.638 89.3768C121.638 87.7401 122.763 86.5638 125.32 86.4616V92.1641ZM129.028 86.4616C131.611 86.5638 132.71 87.7401 132.71 89.3768C132.71 91.0134 131.611 92.0618 129.028 92.1641V86.4616Z" fill="black"/>
</g>
<defs>
<filter id="filter0_d_2_512" x="0" y="0" width="140.565" height="104" filterUnits="userSpaceOnUse" color-interpolation-filters="sRGB">
<feFlood flood-opacity="0" result="BackgroundImageFix"/>
<feColorMatrix in="SourceAlpha" type="matrix" values="0 0 0 0 0 0 0 0 0 0 0 0 0 0 0 0 0 0 127 0" result="hardAlpha"/>
<feOffset dy="4"/>
<feGaussianBlur stdDeviation="2"/>
<feComposite in2="hardAlpha" operator="out"/>
<feColorMatrix type="matrix" values="0 0 0 0 0 0 0 0 0 0 0 0 0 0 0 0 0 0 0.25 0"/>
<feBlend mode="normal" in2="BackgroundImageFix" result="effect1_dropShadow_2_512"/>
<feBlend mode="normal" in="SourceGraphic" in2="effect1_dropShadow_2_512" result="shape"/>
</filter>
<clipPath id="clip0_2_512">
<rect width="132.565" height="96" fill="white" transform="translate(4)"/>
</clipPath>
</defs>
</svg>
